<?xml version="1.0" encoding="UTF-8" standalone="no"?>
<!-- Created with Inkscape (http://www.inkscape.org/) -->

<svg
        xmlns:dc="http://purl.org/dc/elements/1.1/"
        xmlns:cc="http://creativecommons.org/ns#"
        xmlns:rdf="http://www.w3.org/1999/02/22-rdf-syntax-ns#"
        xmlns:sodipodi="http://sodipodi.sourceforge.net/DTD/sodipodi-0.dtd"
        xmlns:inkscape="http://www.inkscape.org/namespaces/inkscape"
        xmlns="http://www.w3.org/2000/svg"
        version="1.1"
        id="svg4945"
        xml:space="preserve"
        width="500"
        height="500"
        viewBox="0 0 500 500.00001"
        sodipodi:docname="lendulet_logo.svg"
        inkscape:version="0.92.4 (unknown)"><metadata
     id="metadata4951"><rdf:RDF><cc:Work
         rdf:about=""><dc:format>image/svg+xml</dc:format><dc:type
        rdf:resource="http://purl.org/dc/dcmitype/StillImage"/><dc:title></dc:title></cc:Work></rdf:RDF></metadata>
    <defs
            id="defs4949"/>
    <sodipodi:namedview
            pagecolor="#ffffff"
            bordercolor="#666666"
            borderopacity="1"
            objecttolerance="10"
            gridtolerance="10"
            guidetolerance="10"
            inkscape:pageopacity="0"
            inkscape:pageshadow="2"
            inkscape:window-width="1533"
            inkscape:window-height="845"
            id="namedview4947"
            showgrid="false"
            inkscape:zoom="0.81982399"
            inkscape:cx="448.931"
            inkscape:cy="262.7389"
            inkscape:window-x="67"
            inkscape:window-y="27"
            inkscape:window-maximized="1"
            inkscape:current-layer="g4955"
            inkscape:pagecheckerboard="true"/>
    <g
            id="g4953"
            inkscape:groupmode="layer"
            inkscape:label="ink_ext_XXXXXX"
            transform="matrix(1.3333333,0,0,-1.3333333,0,500.00003)"><g
       id="g4955"
       transform="scale(0.1)"><path
         style="fill:#ffffff;fill-opacity:1;stroke-width:6.1279192"
         d="m 4865.2434,8437.1231 c -1.8442,-7.8093 -3.6218,-15.6302 -5.5056,-23.4347 0.612,-0.3758 1.2179,-0.7476 1.8312,-1.0769 2.1663,7.4736 3.1843,15.3909 5.745,22.657 -0.7304,0.6455 -1.353,1.2272 -2.0706,1.8546 z M 318.87804,5080.2921 c 3.40746,-6.439 6.76743,-12.9084 10.22113,-19.3173 -2.74482,6.3353 -5.46693,12.576 -8.16255,18.4795 -0.68144,0.2883 -1.37666,0.5517 -2.05858,0.8378 z M 1874.8189,3725.9501 C 1383.182,3725.95 911.68121,3530.6479 564.04146,3183.0081 216.40167,2835.3682 21.099584,2363.8675 21.099499,1872.2306 21.099584,1380.5936 216.40158,909.0928 564.04137,561.45301 911.68121,213.81314 1383.1819,18.511085 1874.8189,18.511 c 491.637,8.5e-5 963.1377,195.30214 1310.7775,542.94191 347.6398,347.63989 542.9419,819.14069 542.9419,1310.77769 -0.9115,650.8699 -343.1107,1253.5787 -901.5581,1587.8972 -16.5102,-30.8449 -33.0462,-61.6731 -49.7893,-92.3737 -98.3965,-180.4403 -196.9734,-360.7912 -295.3489,-541.2317 -12.7998,-23.4786 -24.0036,-47.8388 -37.3779,-70.9619 -17.0733,-29.5388 -17.6064,-60.2428 -9.9579,-92.1221 1.3583,-5.6842 3.3123,-11.214 4.6916,-16.8877 12.5178,-51.4814 -7.2619,-97.1811 -53.4038,-123.4082 -3.6259,-2.0688 -7.2992,-4.1163 -11.1548,-5.673 -54.365,-22.089 -92.8674,-61.747 -121.2778,-111.6192 -29.361,-51.5335 -57.2789,-103.8693 -85.7309,-155.9148 -95.7845,-175.1952 -191.5785,-350.3907 -287.2583,-525.6486 -25.6205,-46.9256 -51.4326,-93.7693 -76.0603,-141.2173 -16.7912,-32.3287 -14.2403,-41.9841 14.4939,-63.6132 31.3779,-23.6246 63.3844,-46.3841 93.738,-71.3567 82.2113,-67.6353 144.3656,-150.3578 187.4042,-247.5106 22.8516,-51.5867 15.1352,-87.6743 -26.1273,-126.3765 -3.657,-3.4362 -7.4773,-6.6806 -11.4061,-9.7901 -14.8789,-11.7997 -19.2662,-25.5407 -11.9207,-44.1284 46.7793,-118.25817 79.6071,-241.03176 116.3347,-362.55258 12.8417,-42.47754 30.8898,-82.90529 50.7947,-122.57026 15.6314,-31.15843 39.3083,-50.57608 73.8104,-58.29903 27.6684,-6.19559 54.7746,-15.02776 81.9727,-23.23109 15.2345,-4.59619 29.9078,-10.92497 42.4048,-21.11257 13.8552,-11.30662 21.6766,-25.60117 17.7375,-43.97257 -3.981,-18.58762 -16.7854,-27.83752 -34.9244,-31.2739 -7.1262,-1.35106 -15.0774,-0.54837 -22.3812,-7.19328 5.517,-7.04418 11.4055,-13.84138 16.5046,-21.18428 22.7157,-32.72646 17.0982,-57.03229 -17.4142,-76.40756 -5.0989,-2.84939 -10.2748,-5.58629 -15.4155,-8.36599 -10.0002,-2.77958 -23.6872,-5.49749 -40.071,-5.70902 -16.0493,-0.18795 -29.561,2.10657 -39.5082,4.57196 -3.0616,1.23664 -25.3086,10.18898 -28.4015,11.44206 -44.1776,17.75078 -87.6147,37.45402 -132.4924,53.36783 0,0 -35.9725,13.1643 -83.1697,34.96035 -31.942,14.74215 -41.7918,33.27001 -38.6466,68.06537 0.5119,5.81234 1.853,11.52328 2.9083,17.27072 6.3634,34.57497 3.6291,67.91596 -11.0829,100.39246 -63.6331,140.42265 -140.1615,273.2882 -228.0256,400.07418 -29.8627,43.06936 -66.5326,54.70571 -114.3359,45.28918 -4.096,-0.80495 -8.145,-1.90197 -12.2198,-2.80063 -38.3995,-8.55851 -75.6291,-21.04126 -112.8999,-33.40439 -36.7693,-12.19225 -74.3535,-18.2128 -113.2229,-18.68293 -54.9509,-0.6488 -108.6679,7.35923 -160.3792,24.40393 -54.8352,18.08526 -110.2518,23.69788 -167.668,23.69788 -91.74146,-0.0526 -172.56087,30.94022 -234.94337,100.06946 -34.03599,37.7097 -72.12962,69.2979 -115.50886,95.1384 -34.20309,20.375 -62.39521,47.7232 -86.50897,79.0166 -16.78707,21.7871 -34.52552,43.2311 -46.0192,68.4961 -9.43749,20.7514 -0.99158,34.3237 21.56733,36.5282 4.9266,0.4772 10.0796,0.2047 14.97271,-0.6104 30.73838,-5.1518 61.6927,-4.5497 92.52922,-2.5852 52.65155,3.3439 102.37124,17.678 145.7296,48.2932 115.20654,81.3448 175.60234,194.3989 187.11684,333.6604 3.7093,44.7734 5.2763,89.7611 2.3818,135.0776 -3.6568,57.4474 -2.0635,115.2386 -2.9202,172.8744 -0.5017,33.7915 -24.1938,50.9701 -57.1023,41.8064 -10.59511,-2.9466 -20.20916,-7.9639 -29.28711,-14.0033 -15.33471,-10.1876 -29.57248,-21.7205 -42.93134,-34.4577 -42.22364,-40.3011 -94.37564,-45.9193 -144.30526,-14.3742 -24.73435,15.621 -50.88603,24.3291 -79.90238,26.283 -27.28492,1.8285 -52.77347,10.1877 -73.9898,27.7312 -34.81229,28.7969 -68.19286,59.2233 -93.31904,97.3406 -17.06086,25.8711 -32.88406,52.5225 -40.77706,82.8346 -6.37173,24.4817 3.68393,40.8217 28.37758,46.6416 8.84911,2.0898 18.18153,2.4439 27.32422,2.7887 14.18744,0.5432 28.47727,-0.382 42.60824,0.6942 29.27642,2.236 52.4969,14.799 67.59863,41.0882 9.62851,16.7702 17.05482,34.4192 23.60204,52.5062 23.36666,64.5005 40.83173,130.6735 56.45579,197.41 13.85727,59.1923 37.36156,114.2644 72.91264,163.802 51.78624,72.1595 118.3979,123.7853 204.72285,148.9253 71.9395,20.9603 145.1821,21.9425 218.6901,15.0565 37.5216,-3.5211 74.0099,-13.495 106.5684,-34.1105 53.2681,-33.7497 76.1977,-86.7148 64.2234,-148.4466 -2.2256,-11.4832 -4.5477,-22.9666 -7.0136,-34.3977 -5.9245,-27.3758 1.5411,-49.4032 25.3853,-65.2647 7.6486,-5.0781 14.979,-10.6271 22.3455,-16.1337 9.9368,-7.4081 15.9905,-17.3213 16.1575,-29.7659 0.4358,-32.5584 1.8974,-65.1993 0.049,-97.6635 -2.2778,-39.9564 -18.8869,-72.3059 -57.3176,-90.351 -6.7813,-3.1869 -19.8203,-2.8838 -17.3545,-13.8237 1.9331,-8.589 13.4385,-8.1735 21.6512,-8.414 10.8355,-0.3148 21.831,-0.7941 32.5306,0.5746 26.4983,3.4272 52.9684,7.286 79.2681,11.9565 184.9125,32.8616 363.1266,89.693 540.2862,150.5051 23.9068,8.2127 38.8736,22.1267 51.2136,43.7452 86.1505,150.9016 173.0589,301.3826 260.3168,451.6469 91.4584,157.5158 181.8639,315.5757 267.4501,476.3619 0.1113,0.21 0.1904,0.3565 0.2994,0.5625 8.0397,-0.5057 15.7945,-0.874 22.5728,-0.8977 8.1159,-0.025 16.2017,0.1372 24.284,0.395 -0.1573,-0.2734 -0.2788,-0.4808 -0.4428,-0.766 -81.6052,-141.8217 -162.9342,-283.789 -244.602,-425.5793 -87.0804,-151.1837 -174.4707,-302.1864 -261.5617,-453.3702 -4.2839,-7.4499 -11.027,-14.6307 -8.1745,-26.1873 14.2104,2.8527 19.1418,14.1883 25.5051,23.1953 37.7202,53.2993 81.7209,99.2001 143.4316,124.9879 14.482,6.0394 24.1957,17.335 31.238,31.1901 8.6936,17.1152 17.3606,34.2759 26.5344,51.1298 118.5815,217.8686 237.2545,435.6957 355.8981,653.5331 1.1372,-0.3795 2.2052,-0.8263 3.3512,-1.1968 11.6915,-3.7827 22.4502,-6.9558 32.6862,-9.7426 -280.4094,161.421 -598.1855,246.6367 -921.7375,247.1754 z m 921.7372,-247.1754 c 10.2009,-6.1178 20.3428,-12.3338 30.4241,-18.6469 1.8098,3.3809 -1.8083,-3.3816 0,0 -11.192,2.1998 -17.64,15.1666 -30.4241,18.6469 z M 2167.7502,2410.4342 c -35.2752,-7.0006 -57.7359,-21.4314 -73.2836,-45.9234 -11.1176,-17.5226 -24.8529,-33.2085 -45.3012,-37.2104 -32.1406,-6.2797 -50.0871,-26.7876 -65.2169,-53.2961 -69.986,-122.5646 -140.7302,-244.6915 -210.8627,-367.1725 -18.2541,-31.8793 -37.9948,-62.9335 -53.4277,-96.3591 -24.6278,-53.3307 -18.5506,-103.9104 14.7811,-151.6301 10.5117,-15.0777 14.6682,-14.769 24.8349,1.1132 1.7867,2.821 3.3308,5.8009 4.9191,8.7369 35.4424,65.3259 70.721,130.7316 106.3409,195.9738 85.6176,156.8575 171.426,313.6233 257.0854,470.4494 12.6954,23.259 24.9382,46.7723 40.1307,75.3183 z m -248.3603,-132.1571 c -33.8751,-8.4009 -62.8044,-20.5258 -87.5263,-41.507 -36.4767,-30.939 -76.4004,-56.6393 -118.0702,-80.034 -36.5394,-20.5111 -75.3612,-36.0471 -112.6843,-54.7923 -29.9149,-15.0254 -33.3175,-22.5121 -21.4477,-53.1166 25.3594,-65.4304 51.2135,-130.6686 76.8862,-195.9737 1.2123,-3.1138 2.2374,-6.3454 3.8779,-9.2397 3.7198,-6.5515 8.7878,-7.629 13.9913,-1.903 2.7585,3.0302 4.5033,6.9888 6.5827,10.6041 75.7957,131.8327 151.6191,263.6473 227.2477,395.5739 4.8063,8.3806 11.6231,16.2928 11.1427,30.3883 z"
         id="path5022"
         inkscape:connector-curvature="0"
         sodipodi:nodetypes="ccccccccccsssssccccccccccccccccccccccccccccccccccccccccccccccccccccccccccccccccccccccccccccccccccccccccccccccccccccccccccccccccscccccccccccccccccc" /></g></g></svg>
